<?xml version="1.0" encoding="utf-8"?>
<!-- Generator: Adobe Illustrator 23.1.0, SVG Export Plug-In . SVG Version: 6.00 Build 0)  -->
<svg version="1.1" id="Layer_1" xmlns="http://www.w3.org/2000/svg" xmlns:xlink="http://www.w3.org/1999/xlink" x="0px" y="0px"
	 viewBox="0 0 500 500" style="enable-background:new 0 0 500 500;" xml:space="preserve">
<style type="text/css">
	.st0{fill:url(#SVGID_1_);}
</style>
<g>
	<linearGradient id="SVGID_1_" gradientUnits="userSpaceOnUse" x1="128.42" y1="354.164" x2="378.9232" y2="354.164">
		<stop  offset="0" style="stop-color:#FC9512"/>
		<stop  offset="0.3533" style="stop-color:#FD5F35"/>
		<stop  offset="0.7913" style="stop-color:#FE225C"/>
		<stop  offset="1" style="stop-color:#FF0A6C"/>
	</linearGradient>
	<path class="st0" d="M378.92,354.16c0,25.76-7.77,49.69-21.1,69.6c-2.6,3.89-5.41,7.63-8.43,11.18c-2.69,3.19-5.54,6.25-8.53,9.14
		c-4.81,4.67-9.99,8.96-15.51,12.81c-2.74,1.92-5.55,3.72-8.44,5.4c-2.77,1.63-5.61,3.16-8.52,4.57c-4.99,2.43-10.17,4.54-15.51,6.3
		c-2.77,0.92-5.59,1.74-8.45,2.45c-2.8,0.71-5.65,1.32-8.51,1.83c-5.08,0.92-10.25,1.52-15.51,1.8c-0.47,0.02-0.95,0.04-1.42,0.06
		c-1.77,0.07-3.54,0.11-5.32,0.11c-0.57,0-1.14,0-1.71-0.01c-1.21-0.01-2.42-0.04-3.62-0.09c-1.63-0.06-3.26-0.17-4.89-0.31
		c-5.28-0.42-10.45-1.17-15.51-2.23c-2.85-0.59-5.68-1.28-8.46-2.06c-2.89-0.82-5.72-1.74-8.51-2.75
		c-5.35-1.94-10.52-4.23-15.5-6.86c-2.89-1.52-5.72-3.15-8.47-4.88c-2.91-1.83-5.74-3.78-8.49-5.85
		c-5.54-4.16-10.73-8.78-15.51-13.79c-2.99-3.14-5.82-6.44-8.48-9.88c-3.06-3.96-5.9-8.11-8.48-12.43
		c-11.2-18.76-17.63-40.69-17.63-64.13c0-23.43,6.44-45.36,17.63-64.12c2.58-4.32,5.4-8.46,8.48-12.42
		c2.64-3.44,5.48-6.74,8.48-9.89c4.78-5,9.97-9.63,15.51-13.79c2.75-2.06,5.58-4.01,8.49-5.85c2.75-1.74,5.58-3.36,8.47-4.89
		c4.98-2.61,10.15-4.91,15.5-6.85c2.79-1.01,5.62-1.93,8.51-2.75c2.78-0.78,5.6-1.47,8.46-2.06c5.07-1.06,10.24-1.81,15.51-2.23
		c2.81-0.23,5.65-0.36,8.51-0.4c0.57-0.01,1.14-0.01,1.71-0.01c2.26,0,4.51,0.05,6.74,0.17c5.27,0.28,10.44,0.88,15.51,1.8
		c2.86,0.52,5.71,1.13,8.51,1.83c2.85,0.72,5.68,1.54,8.45,2.45c5.34,1.76,10.52,3.87,15.51,6.3c2.91,1.41,5.75,2.94,8.52,4.57
		c2.89,1.69,5.7,3.49,8.44,5.4c5.52,3.84,10.7,8.14,15.51,12.81c2.99,2.9,5.85,5.95,8.53,9.14c3.01,3.56,5.82,7.3,8.43,11.19
		C371.15,304.48,378.92,328.41,378.92,354.16z"/>
	<path d="M163.01,180.41v260.18c-2.99-3.14-5.82-6.44-8.48-9.88v-250.3H163.01z"/>
	<path d="M195.48,136.79V465.1c-2.89-1.52-5.72-3.15-8.47-4.88V136.79H195.48z"/>
	<path d="M227.95,87.36v389.41c-2.85-0.59-5.68-1.28-8.46-2.06V87.36H227.95z"/>
	<path d="M260.42,20v459.25c-0.47,0.02-0.95,0.04-1.42,0.06c-1.77,0.07-3.54,0.11-5.32,0.11c-0.57,0-1.14,0-1.71-0.01V20H260.42z"/>
	<path d="M292.89,87.36v385.8c-2.77,0.92-5.59,1.74-8.45,2.45V87.36H292.89z"/>
	<path d="M325.36,136.79v320.1c-2.74,1.92-5.55,3.72-8.44,5.4v-325.5H325.36z"/>
	<path d="M357.83,180.41v243.34c-2.6,3.89-5.41,7.63-8.43,11.18V180.41H357.83z"/>
</g>
</svg>
